<svg xmlns="http://www.w3.org/2000/svg" width="1920" height="1260" viewBox="0 0 1920 1260">
  <metadata><?xpacket begin="﻿" id="W5M0MpCehiHzreSzNTczkc9d"?>
<x:xmpmeta xmlns:x="adobe:ns:meta/" x:xmptk="Adobe XMP Core 5.6-c138 79.159824, 2016/09/14-01:09:01        ">
   <rdf:RDF xmlns:rdf="http://www.w3.org/1999/02/22-rdf-syntax-ns#">
      <rdf:Description rdf:about=""/>
   </rdf:RDF>
</x:xmpmeta>
                                                                                                    
                                                                                                    
                                                                                                    
                                                                                                    
                                                                                                    
                                                                                                    
                                                                                                    
                                                                                                    
                                                                                                    
                                                                                                    
                                                                                                    
                                                                                                    
                                                                                                    
                                                                                                    
                                                                                                    
                                                                                                    
                                                                                                    
                                                                                                    
                                                                                                    
                                                                                                    
                           
<?xpacket end="w"?></metadata>
<defs>
    <style>
      .cls-1 {
        fill-rule: evenodd;
      }
    </style>
  </defs>
  <path id="Color_Fill_1" data-name="Color Fill 1" class="cls-1" d="M0,0H1920V799l-178,2v-1q11.505-20.5,23-41c4.27-14.488-7.12-61.886-12-69-4.98-7.246-60.61-32.406-74-31l-64,22q-1.5-33-3-66l-43-7-127-2c-37.39-5.637-103.16-4.592-140,1l-273,5c-0.88,70.319,12.57,130.188,22,194L947,792l-169,9-18-8-54,9H656l-131-1-83-4-41,5c-88.489.088-179.425-12.036-266,2-20.607,3.341-36.966-4.8-53-7L4,810l1-11-5,1V0ZM1671,693c49.5-1.319,85.26,43.6,55,84q-14.505,11.5-29,23h-97q3.495-17.5,7-35,8.505-7,17-14c10.62-17.629,10.01-42.057,28-52Q1661.5,696,1671,693Z"/>
</svg>
